<?xml version="1.0" encoding="utf-8"?>
<!-- Svg Vector Icons : http://www.onlinewebfonts.com/icon -->
<!DOCTYPE svg PUBLIC "-//W3C//DTD SVG 1.1//EN" "http://www.w3.org/Graphics/SVG/1.1/DTD/svg11.dtd">
<svg version="1.1" xmlns="http://www.w3.org/2000/svg" xmlns:xlink="http://www.w3.org/1999/xlink" x="0px" y="0px" viewBox="0 0 1000 1000" enable-background="new 0 0 1000 1000" xml:space="preserve">
<metadata> Svg Vector Icons : http://www.onlinewebfonts.com/icon </metadata>
<g><g transform="translate(0.000000,511.000000) scale(0.100000,-0.100000)"><path d="M4500.8,4989.3c-837.6-49.9-1632.1-242.9-1993-483.5c-376.8-249.7-683.3-696.9-760.4-1107.8c-65.8-360.9,181.6-1078.2,606.1-1750.1l124.8-199.8l-179.3-204.3c-715-812.6-1032.8-1825.1-896.6-2862.4c104.4-799,458.5-1507.3,1044.2-2095.2c301.9-299.6,587.9-508.5,953.4-692.3c656-329.1,1343.8-447.2,2058.9-351.8C7079.4-4546.9,8387-3239.4,8598.1-1618.6c138.5,1051-197.5,2092.9-935.2,2905.6L7501.7,1464l145.3,227c186.1,283.8,419.9,755.9,508.5,1014.7c156.6,467.6,145.3,721.9-52.2,1114.6c-99.9,197.5-143,258.8-331.4,444.9c-254.2,252-390.4,338.2-703.7,442.7c-454,152.1-978.4,245.2-1620.8,283.7C5043.3,5016.5,4923,5016.5,4500.8,4989.3z M5896.8,4594.3c549.3-72.7,1003.3-186.2,1282.5-322.4c340.5-165.7,633.3-535.7,708.2-898.9c65.8-308.7-136.2-851.2-558.4-1511.8l-104.4-161.2L7029.5,1834c-106.7,74.9-204.3,138.5-217.9,143c-11.3,4.5,15.9,63.6,61.3,131.7c197.5,297.4,324.6,642.4,299.6,821.7c-34,258.8-317.8,601.5-610.6,740c-687.8,324.6-2433.4,324.6-3123.5,0c-290.6-136.2-576.6-481.2-610.6-737.8c-25-181.6,68.1-451.7,263.3-776.3l99.9-170.3l-54.5-34c-29.5-20.4-127.1-88.5-217.9-154.4l-165.7-118L2594,1949.8c-292.8,492.6-465.3,914.8-490.3,1203.1c-34,354.1,224.7,814.9,587.9,1048.7c299.6,192.9,996.5,365.4,1727.5,426.7C4745.9,4655.6,5576.7,4637.4,5896.8,4594.3z M5760.6,3504.7c301.9-45.4,558.4-113.5,694.6-181.6c202-104.4,360.9-311,360.9-476.7c0-99.9-93.1-306.4-227-510.7l-118-179.3l-115.8,47.7c-227,93.1-635.6,199.7-892.1,233.8c-594.7,77.2-1189.5,6.8-1743.3-206.6c-231.5-88.5-195.2-106.7-360.9,172.5c-111.2,183.9-174.8,351.8-174.8,449.5c2.3,154.4,170.2,370,365.5,472.2c181.6,90.8,608.3,181.6,1041.9,222.5C4795.8,3566,5540.4,3538.8,5760.6,3504.7z M5613,2051.9c338.2-65.8,681-179.3,792.2-265.6c29.5-22.7,68.1-40.9,86.3-40.9c45.4,0,311-156.6,483.5-288.3c855.8-642.4,1339.3-1679.8,1287.1-2764.8c-38.6-842.1-365.5-1584.4-946.6-2167.8c-1459.6-1459.6-3938.4-1205.4-5059.8,522.1c-894.4,1375.6-608.4,3289.2,642.4,4313c485.8,395,1048.7,637.9,1682.1,724.1C4802.7,2115.5,5383.8,2097.3,5613,2051.9z"/><path d="M2510-492.7c-59-59-59-59-45.4-345c29.5-687.8,222.5-1259.8,626.5-1870.5c170.2-261,220.2-297.3,340.5-245.1c63.6,25,115.8,104.4,115.8,177.1c0,20.4-68.1,140.7-149.8,263.3c-365.5,547.1-540.3,1055.5-567.5,1645.7c-15.9,340.5-20.4,358.7-99.9,399.5C2634.8-417.8,2578.1-424.6,2510-492.7z"/><path d="M3604.1-3032.8c-113.5-111.2-34-306.4,124.8-306.4c43.1,0,90.8,20.4,124.8,56.8c36.3,34,56.8,81.7,56.8,124.8c0,43.1-20.4,90.8-56.8,124.8c-34,36.3-81.7,56.8-124.8,56.8C3685.8-2976.1,3638.2-2996.5,3604.1-3032.8z"/></g></g>
</svg>